<?xml version="1.0" standalone="no"?>
<!DOCTYPE svg PUBLIC "-//W3C//DTD SVG 20010904//EN"
 "http://www.w3.org/TR/2001/REC-SVG-20010904/DTD/svg10.dtd">
<svg version="1.0" xmlns="http://www.w3.org/2000/svg"
 width="512.000000pt" height="512.000000pt" viewBox="0 0 512.000000 512.000000"
 preserveAspectRatio="xMidYMid meet">
<metadata>
Created by potrace 1.14, written by Peter Selinger 2001-2017
</metadata>
<g transform="translate(0.000000,512.000000) scale(0.100000,-0.100000)"
fill="#000000" stroke="none">
<path d="M1795 5101 c-118 -34 -207 -94 -274 -185 -22 -28 -76 -123 -121 -211
-45 -88 -115 -223 -155 -300 -40 -77 -132 -257 -205 -400 -73 -143 -140 -273
-149 -290 -15 -28 -21 -30 -76 -33 -118 -5 -235 -59 -313 -142 -30 -32 -99
-150 -87 -150 2 0 0 -11 -5 -25 -6 -15 -10 -45 -11 -68 -6 -186 117 -347 304
-402 31 -9 57 -19 57 -22 0 -3 -9 -18 -20 -34 -33 -45 -62 -138 -65 -211 -13
-223 149 -416 379 -452 45 -7 56 -13 56 -29 0 -22 69 -189 110 -265 53 -98
145 -229 176 -249 16 -10 35 -13 57 -9 30 6 37 1 86 -48 32 -33 49 -56 42 -60
-18 -11 -13 -51 9 -79 35 -44 307 -216 323 -205 2 2 11 -3 20 -11 15 -12 11
-17 -41 -48 -138 -83 -266 -200 -370 -338 -113 -151 -225 -428 -225 -560 0
-104 57 -198 150 -245 l48 -25 1066 0 1065 0 48 24 c118 61 173 188 140 327
-37 160 -126 359 -215 479 -77 104 -216 235 -329 311 l-100 66 67 32 c239 115
465 320 618 561 44 69 112 212 145 302 24 66 22 64 110 78 59 9 155 63 207
115 143 144 169 348 67 529 -27 49 -24 55 35 66 96 18 215 119 265 224 53 112
45 258 -20 362 -61 98 -196 184 -309 196 -78 8 -98 10 -107 12 -4 0 -29 45
-56 99 -121 236 -248 481 -263 502 -11 16 -26 24 -54 25 -37 2 -41 6 -71 64
-32 61 -32 61 -13 85 10 13 19 34 19 46 0 34 -178 370 -227 428 -54 63 -136
121 -218 152 -49 19 -80 23 -170 23 -102 1 -120 -2 -245 -42 -167 -52 -270
-84 -290 -89 -8 -2 -45 -6 -81 -9 -70 -5 -51 -10 -429 104 -142 42 -263 51
-355 24z"/>
</g>
</svg>
